<svg width="20" height="24" viewBox="0 0 20 24" fill="none" xmlns="http://www.w3.org/2000/svg">
<g filter="url(#filter0_d_180_9346)">
<path fill-rule="evenodd" clip-rule="evenodd" d="M15.6287 3.93143L12.6492 0.16L12.2741 0H4.53589L4 0.571429V6.85714H5.07177V1.14286H10.9665V5.14286L11.5024 5.71429H14.7177V6.85714H15.7895V4.34286L15.6287 3.93143ZM12.0383 4.57143V1.14286L14.7177 4.57143H12.0383ZM4.53589 8L4 8.57143V15.4286L4.53589 16H15.2536L15.7895 15.4286V8.57143L15.2536 8H4.53589ZM6.67943 12.5714H6.33646V13.7143H5.60766V10.2857H6.74373C7.54756 10.2857 7.95483 10.6971 7.95483 11.4286C7.95691 11.584 7.92732 11.7381 7.8681 11.8802C7.80889 12.0222 7.72146 12.1489 7.61187 12.2514C7.34626 12.4722 7.01593 12.5856 6.67943 12.5714ZM6.61512 10.9143H6.33646V11.9771H6.61512C7.00096 11.9771 7.19388 11.7943 7.19388 11.44C7.19388 11.0857 7.00096 10.9143 6.61512 10.9143ZM10.9665 13.2343C11.1248 13.068 11.2486 12.8682 11.3298 12.6477C11.411 12.4272 11.4479 12.191 11.4381 11.9543C11.4381 10.8114 10.87 10.2857 9.72325 10.2857H8.58718V13.7143H9.72325C9.94996 13.726 10.1766 13.6896 10.39 13.6072C10.6034 13.5248 10.7994 13.398 10.9665 13.2343ZM9.30526 13.0857V10.9143H9.65895C9.79565 10.905 9.93268 10.9256 10.0617 10.9747C10.1907 11.0238 10.3089 11.1005 10.4092 11.2C10.5 11.3017 10.5706 11.422 10.6167 11.5536C10.6627 11.6852 10.6833 11.8254 10.6771 11.9657C10.6932 12.267 10.5969 12.5628 10.4092 12.7886C10.3111 12.8887 10.195 12.9666 10.0679 13.0177C9.9408 13.0688 9.80535 13.0919 9.66966 13.0857H9.30526ZM14.0746 12.3886H13.035V13.7143H12.3062V10.2857H14.1711V10.9143H13.035V11.76H14.0746V12.3886Z" fill="#F15555"/>
</g>
<defs>
<filter id="filter0_d_180_9346" x="0" y="0" width="19.7891" height="24" filterUnits="userSpaceOnUse" color-interpolation-filters="sRGB">
<feFlood flood-opacity="0" result="BackgroundImageFix"/>
<feColorMatrix in="SourceAlpha" type="matrix" values="0 0 0 0 0 0 0 0 0 0 0 0 0 0 0 0 0 0 127 0" result="hardAlpha"/>
<feOffset dy="4"/>
<feGaussianBlur stdDeviation="2"/>
<feComposite in2="hardAlpha" operator="out"/>
<feColorMatrix type="matrix" values="0 0 0 0 0 0 0 0 0 0 0 0 0 0 0 0 0 0 0.25 0"/>
<feBlend mode="normal" in2="BackgroundImageFix" result="effect1_dropShadow_180_9346"/>
<feBlend mode="normal" in="SourceGraphic" in2="effect1_dropShadow_180_9346" result="shape"/>
</filter>
</defs>
</svg>
