<svg width="14" height="19" viewBox="0 0 14 19" fill="none" xmlns="http://www.w3.org/2000/svg">
<path fill-rule="evenodd" clip-rule="evenodd" d="M13.8091 4.66857L10.2709 0.19L9.82545 0H0.636364L0 0.678571V8.14286H1.27273V1.35714H8.27273V6.10714L8.90909 6.78571H12.7273V8.14286H14V5.15714L13.8091 4.66857ZM9.54545 5.42857V1.35714L12.7273 5.42857H9.54545ZM0.636364 9.5L0 10.1786V18.3214L0.636364 19H13.3636L14 18.3214V10.1786L13.3636 9.5H0.636364ZM3.18182 14.9286H2.77455V16.2857H1.90909V12.2143H3.25818C4.21273 12.2143 4.69636 12.7029 4.69636 13.5714C4.69883 13.756 4.66369 13.939 4.59337 14.1077C4.52306 14.2764 4.41924 14.4268 4.28909 14.5486C3.97368 14.8107 3.58142 14.9454 3.18182 14.9286ZM3.10545 12.9607H2.77455V14.2229H3.10545C3.56364 14.2229 3.79273 14.0057 3.79273 13.585C3.79273 13.1643 3.56364 12.9607 3.10545 12.9607ZM8.27273 15.7157C8.46069 15.5183 8.60767 15.281 8.70414 15.0191C8.80061 14.7573 8.84442 14.4768 8.83273 14.1957C8.83273 12.8386 8.15818 12.2143 6.79636 12.2143H5.44727V16.2857H6.79636C7.06558 16.2996 7.33471 16.2564 7.58814 16.1585C7.84157 16.0607 8.07426 15.9102 8.27273 15.7157ZM6.3 15.5393V12.9607H6.72C6.88233 12.9497 7.04506 12.9741 7.19824 13.0325C7.35142 13.0908 7.49184 13.1818 7.61091 13.3C7.71878 13.4208 7.80259 13.5636 7.85727 13.7199C7.91196 13.8762 7.93639 14.0427 7.92909 14.2093C7.94816 14.567 7.83378 14.9183 7.61091 15.1864C7.49439 15.3053 7.35653 15.3979 7.20562 15.4585C7.05471 15.5191 6.89385 15.5466 6.73273 15.5393H6.3ZM11.9636 14.7114H10.7291V16.2857H9.86364V12.2143H12.0782V12.9607H10.7291V13.965H11.9636V14.7114Z" fill="#F15555"/>
</svg>
