<svg width="30" height="30" viewBox="0 0 30 30" fill="none" xmlns="http://www.w3.org/2000/svg">
<path d="M29.24 14.6201C29.2383 11.8263 28.4362 9.09155 26.9285 6.73948C25.4209 4.38742 23.2709 2.51656 20.7331 1.34839C18.1953 0.180222 15.3759 -0.236351 12.6087 0.147987C9.84152 0.532326 7.24238 1.70148 5.11897 3.51705C2.99557 5.33263 1.43683 7.71859 0.627269 10.3925C-0.182291 13.0664 -0.208771 15.9163 0.550966 18.6047C1.3107 21.2932 2.82484 23.7077 4.91414 25.5624C7.00344 27.4172 9.58041 28.6344 12.34 29.0701V18.8501H8.62V14.6201H12.34V11.4001C12.34 7.7401 14.52 5.7101 17.86 5.7101C18.9557 5.72549 20.0487 5.82243 21.13 6.0001V9.6001H19.29C18.9762 9.55833 18.6571 9.58769 18.3563 9.68599C18.0554 9.7843 17.7805 9.94903 17.5519 10.168C17.3234 10.3869 17.147 10.6545 17.0359 10.9509C16.9247 11.2473 16.8817 11.5648 16.91 11.8801V14.6201H21L20.35 18.8501H16.95V29.0701C20.3812 28.5141 23.5023 26.7547 25.7543 24.1069C28.0063 21.4591 29.242 18.096 29.24 14.6201V14.6201Z" fill="white"/>
<path d="M20.3091 18.8501L20.9991 14.6201H16.9091V11.8801C16.8809 11.5648 16.9239 11.2473 17.035 10.9509C17.1461 10.6545 17.3225 10.3869 17.5511 10.168C17.7796 9.94901 18.0545 9.78428 18.3554 9.68597C18.6563 9.58767 18.9754 9.55832 19.2891 9.60008H21.1291V6.00008C20.0478 5.82241 18.9548 5.72547 17.8591 5.71008C14.5191 5.71008 12.3391 7.71008 12.3391 11.4001V14.6201H8.61914V18.8501H12.3391V29.0701C13.0939 29.1829 13.856 29.2397 14.6191 29.2401C15.3856 29.2393 16.151 29.1825 16.9091 29.0701V18.8501H20.3091Z" fill="black"/>
</svg>
