<svg width="30" height="30" viewBox="0 0 30 30" fill="none" xmlns="http://www.w3.org/2000/svg">
<path d="M15.0907 29.2601C23.1651 29.2601 29.7107 22.7145 29.7107 14.6401C29.7107 6.56568 23.1651 0.0200806 15.0907 0.0200806C7.0163 0.0200806 0.470703 6.56568 0.470703 14.6401C0.470703 22.7145 7.0163 29.2601 15.0907 29.2601Z" fill="white"/>
<path d="M19.6309 9.11011C19.4331 9.11011 19.2397 9.16876 19.0753 9.27864C18.9108 9.38852 18.7827 9.5447 18.707 9.72742C18.6313 9.91015 18.6115 10.1112 18.6501 10.3052C18.6887 10.4992 18.7839 10.6774 18.9238 10.8172C19.0636 10.9571 19.2418 11.0523 19.4358 11.0909C19.6298 11.1295 19.8308 11.1097 20.0135 11.034C20.1963 10.9583 20.3524 10.8301 20.4623 10.6657C20.5722 10.5012 20.6309 10.3079 20.6309 10.1101C20.6309 9.84489 20.5255 9.59054 20.338 9.403C20.1504 9.21546 19.8961 9.11011 19.6309 9.11011Z" fill="black"/>
<path d="M15.1595 10.4001C14.3248 10.4001 13.5089 10.6476 12.8149 11.1113C12.121 11.575 11.5801 12.2341 11.2607 13.0052C10.9413 13.7763 10.8577 14.6248 11.0205 15.4434C11.1834 16.262 11.5853 17.0139 12.1755 17.6041C12.7656 18.1943 13.5176 18.5962 14.3362 18.759C15.1548 18.9218 16.0033 18.8383 16.7744 18.5189C17.5455 18.1995 18.2046 17.6586 18.6683 16.9646C19.132 16.2706 19.3795 15.4547 19.3795 14.6201C19.3795 13.5009 18.9348 12.4275 18.1434 11.6361C17.352 10.8447 16.2787 10.4001 15.1595 10.4001ZM15.1595 17.3301C14.6235 17.3301 14.0995 17.1711 13.6539 16.8734C13.2082 16.5756 12.8609 16.1523 12.6557 15.6572C12.4506 15.162 12.397 14.6171 12.5015 14.0914C12.6061 13.5657 12.8642 13.0828 13.2432 12.7038C13.6222 12.3248 14.1051 12.0667 14.6308 11.9622C15.1564 11.8576 15.7013 11.9113 16.1965 12.1164C16.6917 12.3215 17.115 12.6688 17.4127 13.1145C17.7105 13.5601 17.8695 14.0841 17.8695 14.6201C17.8695 15.3388 17.5839 16.0281 17.0757 16.5363C16.5675 17.0446 15.8782 17.3301 15.1595 17.3301Z" fill="black"/>
<path d="M18.5096 23.1901H11.6696C10.9903 23.1888 10.3179 23.0534 9.69109 22.7916C9.06425 22.5298 8.49526 22.1468 8.01677 21.6646C7.53829 21.1824 7.15973 20.6105 6.90281 19.9817C6.64589 19.3528 6.51567 18.6794 6.51962 18.0001V11.2001C6.52226 9.83506 7.0657 8.52667 8.03094 7.56143C8.99618 6.59619 10.3046 6.05275 11.6696 6.05011H18.5096C19.8747 6.05275 21.1831 6.59619 22.1483 7.56143C23.1135 8.52667 23.657 9.83506 23.6596 11.2001V18.0001C23.6636 18.6794 23.5333 19.3528 23.2764 19.9817C23.0195 20.6105 22.641 21.1824 22.1625 21.6646C21.684 22.1468 21.115 22.5298 20.4881 22.7916C19.8613 23.0534 19.1889 23.1888 18.5096 23.1901ZM11.6696 7.66011C10.7316 7.66275 9.83268 8.03656 9.16938 8.69987C8.50607 9.36317 8.13226 10.2621 8.12962 11.2001V18.0001C8.13226 18.9382 8.50607 19.837 9.16938 20.5004C9.83268 21.1637 10.7316 21.5375 11.6696 21.5401H18.5096C19.4477 21.5375 20.3466 21.1637 21.0099 20.5004C21.6732 19.837 22.047 18.9382 22.0496 18.0001V11.2001C22.047 10.2621 21.6732 9.36317 21.0099 8.69987C20.3466 8.03656 19.4477 7.66275 18.5096 7.66011H11.6696Z" fill="black"/>
</svg>
