<svg width="30" height="31" viewBox="0 0 30 31" fill="none" xmlns="http://www.w3.org/2000/svg">
<path d="M14.62 30.2307C22.6944 30.2307 29.24 23.6851 29.24 15.6107C29.24 7.53631 22.6944 0.990723 14.62 0.990723C6.5456 0.990723 0 7.53631 0 15.6107C0 23.6851 6.5456 30.2307 14.62 30.2307Z" fill="white"/>
<path d="M8.49004 12.8909H11.32V21.9809H8.49004V12.8909ZM9.91004 8.37085C10.2352 8.37289 10.5525 8.47156 10.8215 8.65433C11.0904 8.83709 11.299 9.0957 11.4207 9.39729C11.5423 9.69887 11.5716 10.0298 11.5047 10.3481C11.4378 10.6663 11.2779 10.9575 11.0451 11.1846C10.8124 11.4117 10.5173 11.5645 10.1975 11.6236C9.87774 11.6826 9.54761 11.6452 9.2491 11.5162C8.95059 11.3872 8.69718 11.1723 8.52107 10.899C8.34495 10.6256 8.2541 10.306 8.26004 9.98085C8.26004 9.76464 8.30278 9.55056 8.38583 9.35093C8.46887 9.1513 8.59057 8.97006 8.74391 8.81764C8.89726 8.66522 9.07924 8.54463 9.27937 8.46281C9.4795 8.38098 9.69383 8.33953 9.91004 8.34085" fill="black"/>
<path d="M13.0996 12.891H15.8096V14.131C16.0827 13.6698 16.4745 13.2902 16.944 13.0316C17.4136 12.7731 17.9438 12.6451 18.4796 12.661C21.3496 12.661 21.8696 14.541 21.8696 16.991V21.991H19.0896V17.571C19.0896 16.571 19.0896 15.161 17.6196 15.161C16.1496 15.161 15.9196 16.311 15.9196 17.491V21.981H13.0996V12.891Z" fill="black"/>
</svg>
