<svg width="31" height="30" viewBox="0 0 31 30" fill="none" xmlns="http://www.w3.org/2000/svg">
<path d="M15.5692 29.2601C23.6436 29.2601 30.1892 22.7145 30.1892 14.6401C30.1892 6.56568 23.6436 0.0200806 15.5692 0.0200806C7.49482 0.0200806 0.949219 6.56568 0.949219 14.6401C0.949219 22.7145 7.49482 29.2601 15.5692 29.2601Z" fill="white"/>
<path d="M23.6505 9.63009C23.1366 9.85404 22.5952 10.0087 22.0405 10.0901C22.3005 10.0901 22.6805 9.58009 22.8305 9.39009C23.0758 9.09639 23.2595 8.7563 23.3705 8.39009C23.3705 8.39009 23.3705 8.33009 23.3705 8.31009C23.3579 8.29951 23.342 8.29371 23.3255 8.29371C23.309 8.29371 23.2931 8.29951 23.2805 8.31009C22.6749 8.628 22.0338 8.87304 21.3705 9.04009C21.3511 9.05258 21.3286 9.05922 21.3055 9.05922C21.2825 9.05922 21.2599 9.05258 21.2405 9.04009C21.1805 8.98009 21.1305 8.92009 21.0705 8.87009C20.793 8.63156 20.479 8.43912 20.1405 8.30009C19.6899 8.11962 19.205 8.04108 18.7205 8.07009C18.2491 8.10911 17.7901 8.24169 17.3705 8.46009C16.9536 8.67574 16.5859 8.97536 16.2905 9.34009C15.9785 9.7188 15.7563 10.1632 15.6405 10.6401C15.5505 11.0957 15.5505 11.5645 15.6405 12.0201C15.6405 12.0901 15.6405 12.1001 15.5805 12.0901C13.0455 11.8353 10.6979 10.6401 9.00051 8.74009C8.92051 8.65009 8.88051 8.65009 8.82051 8.74009C8.47804 9.36807 8.34754 10.0899 8.44845 10.798C8.54936 11.5062 8.87626 12.1628 9.38051 12.6701C9.51023 12.7978 9.64712 12.918 9.79051 13.0301C9.34745 12.9958 8.91568 12.8734 8.52051 12.6701C8.44051 12.6701 8.40051 12.6701 8.40051 12.7401C8.38606 12.8663 8.38606 12.9938 8.40051 13.1201C8.47837 13.7097 8.71088 14.2683 9.07445 14.739C9.43801 15.2097 9.91968 15.5758 10.4705 15.8001C10.6072 15.8629 10.7519 15.9067 10.9005 15.9301C10.4871 16.0032 10.064 16.0032 9.65051 15.9301C9.56051 15.9301 9.53051 15.9301 9.56051 16.0401C9.7738 16.5967 10.1253 17.0899 10.582 17.473C11.0386 17.8562 11.5853 18.1167 12.1705 18.2301C12.2905 18.2301 12.4105 18.2301 12.5305 18.2301C12.2405 18.6801 11.2205 19.0101 10.7505 19.1801C9.88202 19.4865 8.95778 19.6024 8.04051 19.5201C7.89051 19.5201 7.86051 19.5201 7.82051 19.5201C7.78051 19.5201 7.82051 19.5801 7.82051 19.6201L8.39051 19.9601C8.96558 20.2658 9.57257 20.5073 10.2005 20.6801C11.8158 21.1669 13.5306 21.2209 15.1733 20.8365C16.816 20.4522 18.3289 19.643 19.5605 18.4901C20.4492 17.5281 21.137 16.3984 21.5834 15.1672C22.0299 13.936 22.2261 12.6281 22.1605 11.3201C22.1605 11.2201 22.2805 11.1601 22.3505 11.1001C22.8377 10.7263 23.2658 10.2813 23.6205 9.78009C23.6804 9.71078 23.7125 9.6217 23.7105 9.53009C23.7105 9.53009 23.7205 9.60009 23.6505 9.63009Z" fill="black"/>
</svg>
