<svg width="31" height="30" viewBox="0 0 31 30" fill="none" xmlns="http://www.w3.org/2000/svg">
<path d="M15.8226 29.7487C23.8959 29.6124 30.33 22.9572 30.1937 14.8839C30.0573 6.81067 23.4021 0.376533 15.3289 0.512883C7.2556 0.649232 0.821471 7.30443 0.957821 15.3777C1.09417 23.4509 7.74937 29.8851 15.8226 29.7487Z" fill="white"/>
<path d="M7.67969 23.3905L8.88969 18.8405C7.89988 17.0631 7.58455 14.9882 8.00162 12.997C8.41868 11.0058 9.54013 9.23191 11.16 8.00111C12.7799 6.77032 14.7894 6.16526 16.8196 6.29706C18.8497 6.42886 20.7642 7.28867 22.2113 8.71858C23.6585 10.1485 24.5411 12.0525 24.6972 14.0809C24.8533 16.1094 24.2724 18.126 23.0611 19.7605C21.8498 21.395 20.0894 22.5376 18.1034 22.9785C16.1173 23.4194 14.0388 23.1289 12.2497 22.1605L7.67969 23.3905ZM12.4697 20.4605L12.7597 20.6305C14.1903 21.4824 15.8831 21.7816 17.519 21.4715C19.155 21.1615 20.621 20.2637 21.6407 18.9475C22.6604 17.6312 23.1633 15.9873 23.0547 14.3258C22.946 12.6643 22.2333 11.1 21.0509 9.92768C19.8685 8.75538 18.2981 8.05613 16.6357 7.96177C14.9734 7.8674 13.3339 8.38443 12.0264 9.41538C10.7189 10.4463 9.83377 11.92 9.5378 13.5585C9.24184 15.1971 9.5555 16.8873 10.4197 18.3105L10.5997 18.6005L9.91969 21.1405L12.4697 20.4605Z" fill="black"/>
<path fill-rule="evenodd" clip-rule="evenodd" d="M19.3594 15.9907C19.1938 15.8559 18.9993 15.7614 18.7911 15.7146C18.5829 15.6677 18.3666 15.6698 18.1594 15.7207C17.8494 15.8507 17.6494 16.3407 17.4494 16.5907C17.4054 16.6494 17.3414 16.6899 17.2695 16.7047C17.1977 16.7194 17.1229 16.7073 17.0594 16.6707C15.9173 16.2206 14.9595 15.4001 14.3394 14.3407C14.2824 14.2796 14.2508 14.1992 14.2508 14.1157C14.2508 14.0322 14.2824 13.9518 14.3394 13.8907C14.5717 13.6711 14.7438 13.3957 14.8394 13.0907C14.8616 12.7433 14.7853 12.3967 14.6194 12.0907C14.5138 11.6901 14.2992 11.3266 13.9994 11.0407C13.8335 10.9759 13.6534 10.9566 13.4776 10.9847C13.3018 11.0129 13.1367 11.0874 12.9994 11.2007C12.7589 11.4054 12.5682 11.6621 12.4417 11.9515C12.3152 12.2408 12.2563 12.5552 12.2694 12.8707C12.269 13.0491 12.2891 13.2269 12.3294 13.4007C12.4466 13.8164 12.6216 14.2136 12.8494 14.5807C13.0108 14.8603 13.1877 15.1308 13.3794 15.3907C14.0075 16.246 14.7912 16.9754 15.6894 17.5407C16.1419 17.8214 16.6251 18.0495 17.1294 18.2207C17.6554 18.4583 18.2353 18.5515 18.8094 18.4907C19.1364 18.4426 19.4464 18.3142 19.7116 18.117C19.9769 17.9198 20.1891 17.66 20.3294 17.3607C20.4066 17.1777 20.4308 16.9767 20.3994 16.7807C20.2194 16.3807 19.6894 16.1407 19.3594 15.9907Z" fill="black"/>
</svg>
