<svg width="30" height="30" viewBox="0 0 30 30" fill="none" xmlns="http://www.w3.org/2000/svg">
<path d="M15.0907 29.7405C23.1651 29.7405 29.7107 23.1949 29.7107 15.1205C29.7107 7.04609 23.1651 0.500488 15.0907 0.500488C7.0163 0.500488 0.470703 7.04609 0.470703 15.1205C0.470703 23.1949 7.0163 29.7405 15.0907 29.7405Z" fill="white"/>
<path d="M22.9199 12.9905C22.9199 12.0596 22.5501 11.1668 21.8919 10.5085C21.2336 9.85027 20.3408 9.48047 19.4099 9.48047H10.4099C9.48248 9.48575 8.59483 9.85789 7.9409 10.5156C7.28697 11.1732 6.91991 12.063 6.91992 12.9905V17.1705C6.91992 18.1014 7.28973 18.9942 7.94798 19.6524C8.60623 20.3107 9.49901 20.6805 10.4299 20.6805H19.4299C20.3608 20.6805 21.2536 20.3107 21.9119 19.6524C22.5701 18.9942 22.9399 18.1014 22.9399 17.1705L22.9199 12.9905ZM17.6399 15.3905L13.6399 17.3905C13.4899 17.4805 12.9499 17.3905 12.9499 17.1805V13.0905C12.9499 12.9005 13.4899 12.7905 13.6499 12.8805L17.4699 14.9905C17.6299 15.0705 17.7999 15.3005 17.6399 15.3905Z" fill="black"/>
</svg>
