<svg width="18" height="18" viewBox="0 0 18 18" fill="#133D65" xmlns="http://www.w3.org/2000/svg">
<g opacity="0.3">
<path d="M13 2.5H5C4.73478 2.5 4.48043 2.60536 4.29289 2.79289C4.10536 2.98043 4 3.23478 4 3.5V14.5C4 14.7652 4.10536 15.0196 4.29289 15.2071C4.48043 15.3946 4.73478 15.5 5 15.5H13C13.2652 15.5 13.5196 15.3946 13.7071 15.2071C13.8946 15.0196 14 14.7652 14 14.5V3.5C14 3.23478 13.8946 2.98043 13.7071 2.79289C13.5196 2.60536 13.2652 2.5 13 2.5ZM13 3.5V6.5H5V3.5H13ZM5 10.5V7.5H13V10.5H5ZM5 14.5V11.5H13V14.5H5Z" fill="#133D65"/>
<path d="M6.5 5.5C6.77614 5.5 7 5.27614 7 5C7 4.72386 6.77614 4.5 6.5 4.5C6.22386 4.5 6 4.72386 6 5C6 5.27614 6.22386 5.5 6.5 5.5Z" fill="#133D65"/>
<path d="M6.5 9.5C6.77614 9.5 7 9.27614 7 9C7 8.72386 6.77614 8.5 6.5 8.5C6.22386 8.5 6 8.72386 6 9C6 9.27614 6.22386 9.5 6.5 9.5Z" fill="#133D65"/>
<path d="M6.5 13.5C6.77614 13.5 7 13.2761 7 13C7 12.7239 6.77614 12.5 6.5 12.5C6.22386 12.5 6 12.7239 6 13C6 13.2761 6.22386 13.5 6.5 13.5Z" fill="#133D65"/>
</g>
</svg>
