<svg width="19" height="18" viewBox="0 0 19 18" fill="none" xmlns="http://www.w3.org/2000/svg">
<path d="M9.45981 14.1182C10.6933 14.118 11.8912 13.7051 12.8629 12.9453L15.9178 16L16.9004 15.0174L13.8455 11.9627C14.6057 10.991 15.0189 9.79285 15.0192 8.55912C15.0192 5.49396 12.5251 3 9.45981 3C6.39448 3 3.90039 5.49396 3.90039 8.55912C3.90039 11.6243 6.39448 14.1182 9.45981 14.1182ZM9.45981 4.38978C11.7593 4.38978 13.6294 6.25973 13.6294 8.55912C13.6294 10.8585 11.7593 12.7285 9.45981 12.7285C7.16029 12.7285 5.29024 10.8585 5.29024 8.55912C5.29024 6.25973 7.16029 4.38978 9.45981 4.38978Z" fill="#0F2B46"/>
</svg>
